<svg width="64" height="64" viewBox="0 0 64 64" fill="none" xmlns="http://www.w3.org/2000/svg">
<circle cx="32" cy="32" r="31.625" transform="rotate(-90 32 32)" stroke="#46C6ED" stroke-width="0.75"/>
<path d="M24.9843 20.0001C24.7251 20.0053 24.4783 20.1119 24.2968 20.2971L20.2968 24.2971C20.204 24.3891 20.1304 24.4986 20.0801 24.6193C20.0298 24.74 20.0039 24.8694 20.0039 25.0001C20.0039 25.1308 20.0298 25.2602 20.0801 25.3809C20.1304 25.5016 20.204 25.6111 20.2968 25.7031L26.5543 31.9691L22.8748 35.7191L20.1718 43.8361L28.2808 41.1251L28.4528 40.9686L32.0313 37.4456L38.2888 43.7106C38.4797 43.8948 38.7346 43.9977 38.9998 43.9977C39.2651 43.9977 39.52 43.8948 39.7108 43.7106L43.7108 39.7106C43.8949 39.5197 43.9977 39.265 43.9977 38.9998C43.9977 38.7347 43.8949 38.4799 43.7108 38.2891L37.4918 32.0781L42.8203 26.8281H42.8278C44.3828 25.2731 44.3828 22.7266 42.8278 21.1721C42.0767 20.4247 41.0595 20.006 39.9998 20.0081C38.9763 20.0081 37.9448 20.3906 37.1718 21.1721H37.1638L31.9218 26.5081L25.7028 20.2971C25.6107 20.2 25.4991 20.1234 25.3754 20.0723C25.2517 20.0211 25.1182 19.9965 24.9843 20.0001ZM24.9998 22.4141L26.5858 24.0001L25.2968 25.2971L26.7028 26.7031L27.9998 25.4141L30.5153 27.9376L27.9603 30.5471L22.4143 25.0001L24.9998 22.4141ZM36.8983 24.3126L39.6873 27.1096L27.2183 39.3751L23.3283 40.6721L24.6248 36.7891L36.8983 24.3126ZM36.0623 33.4851L38.5858 36.0001L37.2888 37.2891L38.7108 38.7111L39.9998 37.4141L41.5858 39.0001L38.9998 41.5861L33.4528 36.0391L36.0623 33.4841V33.4851Z" fill="#46C6ED"/>
</svg>
