<svg width="32" height="32" viewBox="0 0 32 32" fill="none" xmlns="http://www.w3.org/2000/svg">
<g clip-path="url(#clip0_6927_7146)">
<path d="M31.0625 22.5625H29.6853C29.9258 22.0933 30.0625 21.5625 30.0625 21V6C30.0625 4.10456 28.5204 2.5625 26.625 2.5625H5.375C3.47956 2.5625 1.9375 4.10456 1.9375 6V21C1.9375 21.5625 2.07419 22.0933 2.31469 22.5625H0.9375C0.41975 22.5625 0 22.9822 0 23.5V26C0 27.8954 1.54206 29.4375 3.4375 29.4375H28.5625C30.4579 29.4375 32 27.8954 32 26V23.5C32 22.9822 31.5803 22.5625 31.0625 22.5625ZM3.8125 21V6C3.8125 5.13844 4.51344 4.4375 5.375 4.4375H26.625C27.4866 4.4375 28.1875 5.13844 28.1875 6V21C28.1875 21.8616 27.4866 22.5625 26.625 22.5625H5.375C4.51344 22.5625 3.8125 21.8616 3.8125 21ZM30.125 26C30.125 26.8616 29.4241 27.5625 28.5625 27.5625H3.4375C2.57594 27.5625 1.875 26.8616 1.875 26V24.4375H30.125V26Z" fill="#46C6ED"/>
<path d="M25.375 10.0625H16.7942L16.6122 8.97087C16.5369 8.51881 16.1458 8.1875 15.6875 8.1875H13.5C12.9822 8.1875 12.5625 8.60725 12.5625 9.125C12.5625 9.64275 12.9822 10.0625 13.5 10.0625H14.8933L16.0128 16.7791C16.0881 17.2312 16.4792 17.5625 16.9375 17.5625H17.25V18.5C17.25 19.0178 17.6697 19.4375 18.1875 19.4375C18.7053 19.4375 19.125 19.0178 19.125 18.5V17.5625H22.25V18.5C22.25 19.0178 22.6697 19.4375 23.1875 19.4375C23.7053 19.4375 24.125 19.0178 24.125 18.5V17.5625H24.4375C24.8958 17.5625 25.2869 17.2312 25.3622 16.7791L26.2997 11.1541C26.3451 10.8823 26.2684 10.6043 26.0903 10.394C25.9123 10.1838 25.6506 10.0625 25.375 10.0625ZM23.6433 15.6875H17.7317L17.1067 11.9375H24.2683L23.6433 15.6875Z" fill="#46C6ED"/>
<path d="M11 9.4375H8.5C7.98225 9.4375 7.5625 9.85725 7.5625 10.375C7.5625 10.8928 7.98225 11.3125 8.5 11.3125H11C11.5178 11.3125 11.9375 10.8928 11.9375 10.375C11.9375 9.85725 11.5178 9.4375 11 9.4375Z" fill="#46C6ED"/>
<path d="M11 13.1875H6.625C6.10725 13.1875 5.6875 13.6072 5.6875 14.125C5.6875 14.6428 6.10725 15.0625 6.625 15.0625H11C11.5178 15.0625 11.9375 14.6428 11.9375 14.125C11.9375 13.6072 11.5178 13.1875 11 13.1875Z" fill="#46C6ED"/>
<path d="M11 16.9375H8.5C7.98225 16.9375 7.5625 17.3572 7.5625 17.875C7.5625 18.3928 7.98225 18.8125 8.5 18.8125H11C11.5178 18.8125 11.9375 18.3928 11.9375 17.875C11.9375 17.3572 11.5178 16.9375 11 16.9375Z" fill="#46C6ED"/>
</g>
<defs>
<clipPath id="clip0_6927_7146">
<rect width="32" height="32" fill="white"/>
</clipPath>
</defs>
</svg>
