<svg width="32" height="33" viewBox="0 0 32 33" fill="none" xmlns="http://www.w3.org/2000/svg">
<g clip-path="url(#clip0_6927_7141)">
<path d="M22.8944 18.3909H22.538V16.279C22.538 13.9938 20.6788 12.1345 18.3935 12.1345C17.145 12.1345 16.1293 13.1503 16.1293 14.3988V17.2025L14.978 18.573L14.2069 18.948V18.6182C14.2069 16.3234 12.5984 14.3983 10.4499 13.908C11.9479 12.8602 12.9296 11.1227 12.9296 9.15995C12.9296 5.96678 10.3318 3.36895 7.13859 3.36895C3.94543 3.36895 1.34759 5.96678 1.34759 9.15995C1.34759 11.1227 2.32933 12.8602 3.82731 13.908C1.67883 14.3984 0.0703125 16.3234 0.0703125 18.6182V25.2604H8.0713V31.2474H13.0251L15.1303 32.5001H22.8944C25.1614 32.5001 27.0057 30.6558 27.0057 28.3887V22.5023C27.0058 20.2352 25.1614 18.3909 22.8944 18.3909ZM7.13859 5.2477C9.29578 5.2477 11.0508 7.00269 11.0508 9.15989C11.0508 11.3171 9.29585 13.0721 7.13859 13.0721C4.9814 13.0721 3.2264 11.3171 3.2264 9.15989C3.2264 7.00269 4.9814 5.2477 7.13859 5.2477ZM1.94913 23.3816V18.6182C1.94913 16.9897 3.27406 15.6647 4.90262 15.6647H9.37457C11.0031 15.6647 12.3281 16.9897 12.3281 18.6182V19.5022H8.0713V23.3816H1.94913ZM9.95017 21.381H12.3442V29.3685H9.95017V21.381ZM25.127 28.3887C25.127 29.6197 24.1254 30.6212 22.8944 30.6212H15.647L14.223 29.7738V21.0293L16.1594 20.0876L18.0082 17.8868V14.3987C18.0082 14.1862 18.1811 14.0133 18.3936 14.0133C19.6428 14.0133 20.6592 15.0297 20.6592 16.279V20.2697H22.8944C24.1254 20.2697 25.127 21.2712 25.127 22.5022V28.3887Z" fill="#46C6ED"/>
<path d="M18.4786 8.906H20.1775C20.8712 7.43708 22.0621 6.2461 23.5311 5.55244V3.85356C22.0621 3.1599 20.8712 1.96892 20.1775 0.5H18.4786C17.785 1.96892 16.594 3.1599 15.125 3.85356V5.55244C16.594 6.2461 17.785 7.43708 18.4786 8.906ZM19.3281 2.7346C19.8771 3.48913 20.542 4.15398 21.2965 4.70303C20.542 5.25208 19.8771 5.91693 19.3281 6.67146C18.779 5.91693 18.1142 5.25208 17.3597 4.70303C18.1142 4.15392 18.779 3.48913 19.3281 2.7346Z" fill="#46C6ED"/>
<path d="M28.5837 7.23917H26.8848C26.1911 8.70809 25.0002 9.89907 23.5312 10.5927V12.2916C25.0002 12.9852 26.1911 14.1762 26.8848 15.6451H28.5837C29.2773 14.1762 30.4683 12.9852 31.9372 12.2916V10.5927C30.4683 9.89907 29.2773 8.70809 28.5837 7.23917ZM27.7343 13.4106C27.1853 12.6562 26.5203 11.9912 25.7658 11.4422C26.5203 10.8932 27.1853 10.2282 27.7343 9.47377C28.2833 10.2282 28.9483 10.8932 29.7027 11.4422C28.9482 11.9912 28.2832 12.6562 27.7343 13.4106Z" fill="#46C6ED"/>
</g>
<defs>
<clipPath id="clip0_6927_7141">
<rect width="32" height="32" fill="white" transform="translate(0 0.5)"/>
</clipPath>
</defs>
</svg>
