<svg width="32" height="32" viewBox="0 0 32 32" fill="none" xmlns="http://www.w3.org/2000/svg">
<path d="M30.4375 1.87036H1.5625C0.700938 1.87036 0 2.5713 0 3.43286V23.7034C0 24.5649 0.700938 25.2659 1.5625 25.2659H11.9211L10.7666 28.2547H9.58062C9.06287 28.2547 8.64312 28.6744 8.64312 29.1922C8.64312 29.7099 9.06287 30.1297 9.58062 30.1297H22.4195C22.9373 30.1297 23.357 29.7099 23.357 29.1922C23.357 28.6744 22.9373 28.2547 22.4195 28.2547H21.2335L20.079 25.2659H30.4375C31.2991 25.2659 32 24.5649 32 23.7034V3.43286C32 2.5713 31.2991 1.87036 30.4375 1.87036ZM1.875 3.74536H30.125V19.0872H1.875V3.74536ZM19.2197 28.2451H12.7802L13.9311 25.2658H18.0689L19.2197 28.2451ZM30.125 23.3908H1.875V20.9622H30.125V23.3908Z" fill="#46C6ED"/>
<path d="M8.83163 11.391L11.7388 8.53439C12.1081 8.17152 12.1133 7.57795 11.7504 7.20864C11.3875 6.83933 10.7939 6.83414 10.4246 7.19702L6.84295 10.7165C6.66457 10.8917 6.56363 11.131 6.56251 11.381C6.56138 11.6311 6.66026 11.8712 6.83713 12.048L10.4188 15.6298C10.6019 15.8128 10.8418 15.9044 11.0817 15.9044C11.3216 15.9044 11.5616 15.8128 11.7446 15.6298C12.1107 15.2637 12.1107 14.6701 11.7446 14.304L8.83163 11.391Z" fill="#46C6ED"/>
<path d="M21.5848 7.20279C21.2187 6.83673 20.6252 6.83667 20.259 7.20279C19.8929 7.56886 19.8929 8.16248 20.259 8.5286L23.1719 11.4416L20.2648 14.2982C19.8955 14.661 19.8903 15.2546 20.2532 15.6239C20.4367 15.8107 20.6792 15.9044 20.9219 15.9044C21.159 15.9044 21.3964 15.8149 21.5789 15.6355L25.1606 12.1161C25.339 11.9409 25.4399 11.7016 25.441 11.4515C25.4422 11.2015 25.3433 10.9614 25.1664 10.7845L21.5848 7.20279Z" fill="#46C6ED"/>
<path d="M17.3083 6.9822C16.8203 6.80901 16.2845 7.06445 16.1114 7.55245L13.5932 14.6536C13.4202 15.1416 13.6755 15.6775 14.1635 15.8505C14.2671 15.8872 14.3728 15.9046 14.4768 15.9046C14.8626 15.9046 15.2241 15.6646 15.3604 15.2802L17.8785 8.17908C18.0516 7.69114 17.7963 7.15526 17.3083 6.9822Z" fill="#46C6ED"/>
</svg>
