<svg width="64" height="64" viewBox="0 0 64 64" fill="none" xmlns="http://www.w3.org/2000/svg">
<circle cx="32" cy="32" r="31.625" transform="rotate(-90 32 32)" stroke="#46C6ED" stroke-width="0.75"/>
<g clip-path="url(#clip0_6922_7637)">
<path d="M22.699 16C20.6665 16 19 17.6665 19 19.699V33.262H21.466V19.699C21.4638 19.5365 21.4943 19.3752 21.5555 19.2246C21.6167 19.0741 21.7074 18.9373 21.8223 18.8223C21.9373 18.7074 22.0741 18.6167 22.2246 18.5555C22.3752 18.4943 22.5365 18.4638 22.699 18.466H33.796V25.864H41.194V33.3195H43.66V24.1205L35.5395 16H22.699ZM36.262 20.2095L39.4505 23.398H36.262V20.2095ZM31.349 32.703L28.2665 47.499L30.694 48L33.7765 33.204L31.349 32.703ZM24.78 33.946L19.164 39.735L24.7795 45.525L26.552 43.81L22.6025 39.7355L26.5525 35.6605L24.7795 33.9465L24.78 33.946ZM38.0735 33.946L36.3 35.66L40.2495 39.735L36.2995 43.8095L38.0725 45.524L43.6885 39.735L38.0735 33.946Z" fill="#46C6ED"/>
</g>
<defs>
<clipPath id="clip0_6922_7637">
<rect width="25" height="32" fill="white" transform="translate(19 16)"/>
</clipPath>
</defs>
</svg>
