<svg width="64" height="64" viewBox="0 0 64 64" fill="none" xmlns="http://www.w3.org/2000/svg">
<circle cx="32" cy="32" r="31.625" transform="rotate(-90 32 32)" stroke="#46C6ED" stroke-width="0.75"/>
<path d="M31.9974 20C30.7474 20 29.6833 20.5048 29 21.2734C28.3167 22.0421 27.9974 23.0278 27.9974 24C27.9974 24.9722 28.3167 25.9579 29 26.7266C29.6833 27.4952 30.7474 28 31.9974 28C33.2474 28 34.3115 27.4952 34.9948 26.7266C35.6781 25.9579 35.9974 24.9722 35.9974 24C35.9974 23.0278 35.6781 22.0421 34.9948 21.2734C34.3115 20.5048 33.2474 20 31.9974 20ZM23.3307 21.3333C22.303 21.3333 21.4055 21.7548 20.8333 22.3984C20.2612 23.0421 19.9974 23.8611 19.9974 24.6667C19.9974 25.4722 20.2612 26.2912 20.8333 26.9349C21.4055 27.5786 22.303 28 23.3307 28C24.3585 28 25.256 27.5786 25.8281 26.9349C26.4003 26.2912 26.6641 25.4722 26.6641 24.6667C26.6641 23.8611 26.4003 23.0421 25.8281 22.3984C25.256 21.7548 24.3585 21.3333 23.3307 21.3333ZM40.6641 21.3333C39.6363 21.3333 38.7388 21.7548 38.1667 22.3984C37.5945 23.0421 37.3307 23.8611 37.3307 24.6667C37.3307 25.4722 37.5945 26.2912 38.1667 26.9349C38.7388 27.5786 39.6363 28 40.6641 28C41.6918 28 42.5893 27.5786 43.1615 26.9349C43.7336 26.2912 43.9974 25.4722 43.9974 24.6667C43.9974 23.8611 43.7336 23.0421 43.1615 22.3984C42.5893 21.7548 41.6918 21.3333 40.6641 21.3333ZM31.9974 22C32.7474 22 33.1833 22.2452 33.5 22.6016C33.8167 22.9579 33.9974 23.4722 33.9974 24C33.9974 24.5278 33.8167 25.0421 33.5 25.3984C33.1833 25.7548 32.7474 26 31.9974 26C31.2474 26 30.8115 25.7548 30.4948 25.3984C30.1781 25.0421 29.9974 24.5278 29.9974 24C29.9974 23.4722 30.1781 22.9579 30.4948 22.6016C30.8115 22.2452 31.2474 22 31.9974 22ZM23.3307 23.3333C23.8585 23.3333 24.1277 23.4952 24.3333 23.7266C24.5389 23.9579 24.6641 24.3056 24.6641 24.6667C24.6641 25.0278 24.5389 25.3755 24.3333 25.6068C24.1277 25.8381 23.8585 26 23.3307 26C22.803 26 22.5337 25.8381 22.3281 25.6068C22.1225 25.3755 21.9974 25.0278 21.9974 24.6667C21.9974 24.3056 22.1225 23.9579 22.3281 23.7266C22.5337 23.4952 22.803 23.3333 23.3307 23.3333ZM40.6641 23.3333C41.1918 23.3333 41.4611 23.4952 41.6667 23.7266C41.8723 23.9579 41.9974 24.3056 41.9974 24.6667C41.9974 25.0278 41.8723 25.3755 41.6667 25.6068C41.4611 25.8381 41.1918 26 40.6641 26C40.1363 26 39.8671 25.8381 39.6615 25.6068C39.4558 25.3755 39.3307 25.0278 39.3307 24.6667C39.3307 24.3056 39.4558 23.9579 39.6615 23.7266C39.8671 23.4952 40.1363 23.3333 40.6641 23.3333ZM20.9974 29.3333C19.7107 29.3333 18.6641 30.38 18.6641 31.6667V36C18.6641 38.94 21.0574 41.3333 23.9974 41.3333C24.4707 41.3333 24.9311 41.2736 25.3711 41.1536C25.0911 40.5536 24.8842 39.9129 24.7708 39.2396C24.5242 39.2996 24.2641 39.3333 23.9974 39.3333C22.1574 39.3333 20.6641 37.84 20.6641 36V31.6667C20.6641 31.48 20.8107 31.3333 20.9974 31.3333H24.6836C24.7503 30.5733 25.0439 29.8867 25.5039 29.3333H20.9974ZM28.3307 29.3333C27.0541 29.3333 25.9974 30.39 25.9974 31.6667V38C25.9974 41.3018 28.6956 44 31.9974 44C35.2992 44 37.9974 41.3018 37.9974 38V31.6667C37.9974 30.39 36.9407 29.3333 35.6641 29.3333H28.3307ZM38.4909 29.3333C38.9509 29.8867 39.2445 30.5733 39.3112 31.3333H42.9974C43.1841 31.3333 43.3307 31.48 43.3307 31.6667V36C43.3307 37.84 41.8374 39.3333 39.9974 39.3333C39.7307 39.3333 39.4706 39.2996 39.224 39.2396C39.1106 39.9129 38.9037 40.5536 38.6237 41.1536C39.0637 41.2736 39.5241 41.3333 39.9974 41.3333C42.9374 41.3333 45.3307 38.94 45.3307 36V31.6667C45.3307 30.38 44.2841 29.3333 42.9974 29.3333H38.4909ZM28.3307 31.3333H30.7044L31.3164 32.5573C31.3191 32.562 31.3229 32.5656 31.3255 32.5703C31.3249 32.5743 31.3223 32.5767 31.3216 32.5807L30.6719 36.3307C30.6479 36.4687 30.6829 36.6107 30.7682 36.7214L31.6016 37.8047C31.6956 37.928 31.8421 38 31.9974 38C32.1527 38 32.2992 37.928 32.3932 37.8047L33.2266 36.7214C33.3119 36.6107 33.3469 36.4687 33.3229 36.3307L32.6732 32.5807C32.6725 32.5767 32.6706 32.5743 32.6693 32.5703C32.6719 32.5656 32.6757 32.5626 32.6784 32.5573L33.2891 31.3333H35.6641C35.8608 31.3333 35.9974 31.47 35.9974 31.6667V38C35.9974 40.2209 34.2183 42 31.9974 42C29.7765 42 27.9974 40.2209 27.9974 38V31.6667C27.9974 31.47 28.134 31.3333 28.3307 31.3333Z" fill="#46C6ED"/>
</svg>
