<svg width="64" height="64" viewBox="0 0 64 64" fill="none" xmlns="http://www.w3.org/2000/svg">
<circle cx="32" cy="32" r="31.75" transform="rotate(-90 32 32)" fill="#0E172E" stroke="#0E172E" stroke-width="0.5"/>
<g clip-path="url(#clip0_6946_7204)">
<path d="M45.1875 16.0625H18.8125C17.2617 16.0625 16 17.3242 16 18.875V45.125C16 46.6758 17.2617 47.9375 18.8125 47.9375H45.1875C46.7383 47.9375 48 46.6758 48 45.125V18.875C48 17.3242 46.7383 16.0625 45.1875 16.0625ZM18.8125 17.9375H45.1875C45.7044 17.9375 46.125 18.3581 46.125 18.875V23.5625H17.875V18.875C17.875 18.3581 18.2956 17.9375 18.8125 17.9375ZM45.1875 46.0625H18.8125C18.2956 46.0625 17.875 45.6419 17.875 45.125V25.4375H46.125V45.125C46.125 45.6419 45.7044 46.0625 45.1875 46.0625Z" fill="#46C6ED"/>
<path d="M35.1821 28.3258C34.7062 28.1219 34.155 28.3423 33.9511 28.8182L28.3261 41.9432C28.1221 42.419 28.3426 42.9702 28.8184 43.1742C29.2945 43.3782 29.8456 43.1575 30.0494 42.6818L35.6744 29.5568C35.8784 29.0809 35.6579 28.5297 35.1821 28.3258Z" fill="#46C6ED"/>
<path d="M27.1068 31.4144C26.7833 31.01 26.1933 30.9445 25.7891 31.268L21.1016 35.018C20.6329 35.3928 20.6326 36.107 21.1016 36.4821L25.7891 40.2321C26.1934 40.5556 26.7835 40.49 27.1068 40.0857C27.4303 39.6814 27.3648 39.0914 26.9604 38.768L23.188 35.75L26.9604 32.7321C27.3648 32.4087 27.4303 31.8187 27.1068 31.4144Z" fill="#46C6ED"/>
<path d="M42.8982 35.018L38.2107 31.268C37.8064 30.9445 37.2164 31.0101 36.893 31.4144C36.5695 31.8187 36.635 32.4087 37.0394 32.7321L40.8118 35.7501L37.0394 38.768C36.635 39.0914 36.5695 39.6814 36.893 40.0857C37.2169 40.4904 37.8069 40.5552 38.2107 40.2321L42.8982 36.4821C43.3669 36.1073 43.3672 35.3931 42.8982 35.018Z" fill="#46C6ED"/>
<path d="M20.75 21.6875C21.2678 21.6875 21.6875 21.2678 21.6875 20.75C21.6875 20.2322 21.2678 19.8125 20.75 19.8125C20.2322 19.8125 19.8125 20.2322 19.8125 20.75C19.8125 21.2678 20.2322 21.6875 20.75 21.6875Z" fill="#46C6ED"/>
<path d="M24.5 21.6875C25.0178 21.6875 25.4375 21.2678 25.4375 20.75C25.4375 20.2322 25.0178 19.8125 24.5 19.8125C23.9822 19.8125 23.5625 20.2322 23.5625 20.75C23.5625 21.2678 23.9822 21.6875 24.5 21.6875Z" fill="#46C6ED"/>
<path d="M28.25 21.6875C28.7678 21.6875 29.1875 21.2678 29.1875 20.75C29.1875 20.2322 28.7678 19.8125 28.25 19.8125C27.7322 19.8125 27.3125 20.2322 27.3125 20.75C27.3125 21.2678 27.7322 21.6875 28.25 21.6875Z" fill="#46C6ED"/>
<path d="M37.625 21.6875H43.25C43.7678 21.6875 44.1875 21.2678 44.1875 20.75C44.1875 20.2322 43.7678 19.8125 43.25 19.8125H37.625C37.1072 19.8125 36.6875 20.2322 36.6875 20.75C36.6875 21.2678 37.1072 21.6875 37.625 21.6875Z" fill="#46C6ED"/>
</g>
<defs>
<clipPath id="clip0_6946_7204">
<rect width="32" height="32" fill="white" transform="translate(16 16)"/>
</clipPath>
</defs>
</svg>
