<svg width="64" height="64" viewBox="0 0 64 64" fill="none" xmlns="http://www.w3.org/2000/svg">
<circle cx="32" cy="32" r="31.75" transform="rotate(-90 32 32)" fill="#0E172E" stroke="#0E172E" stroke-width="0.5"/>
<path d="M48 41.3126V19.6897H43.6875V17.4666H38.0625V19.6897H16V41.3126H28.2812V43.0647C28.2812 43.9435 27.5663 44.6584 26.6875 44.6584V46.5334H37.3125V44.6584C36.4337 44.6584 35.7188 43.9435 35.7188 43.0647V41.3126H48ZM39.9375 31.6272H41.8125V33.2388L40.8746 34.1764L39.9375 33.2389V31.6272ZM41.8125 19.3416V29.7522H39.9375V19.3416H41.8125ZM17.875 21.5647H38.0625V34.0154L40.8742 36.828L43.6875 34.0156V21.5647H46.125V39.4376H17.875V21.5647ZM34.232 44.6584H29.7679C30.016 44.1809 30.1562 43.6389 30.1562 43.0647V41.3126H33.8437V43.0647C33.8437 43.6389 33.9839 44.1809 34.232 44.6584Z" fill="#46C6ED"/>
<path d="M25.0625 35.1897H26.9375V37.0647H25.0625V35.1897Z" fill="#46C6ED"/>
<path d="M28.8125 35.1897H30.6875V37.0647H28.8125V35.1897Z" fill="#46C6ED"/>
<path d="M32.5625 35.1897H34.4375V37.0647H32.5625V35.1897Z" fill="#46C6ED"/>
<path d="M21.3125 35.1897H23.1875V37.0647H21.3125V35.1897Z" fill="#46C6ED"/>
<path d="M22.8434 25.1782L20.6406 28.2639L22.8434 31.3496L24.3695 30.2602L22.9444 28.2639L24.3695 26.2677L22.8434 25.1782Z" fill="#46C6ED"/>
<path d="M31.3828 26.2677L32.8079 28.2639L31.3828 30.2602L32.9089 31.3496L35.1117 28.2639L32.9089 25.1782L31.3828 26.2677Z" fill="#46C6ED"/>
<path d="M25.9766 31.4976L27.9689 24.2151L29.7782 24.7101L27.7859 31.9926L25.9766 31.4976Z" fill="#46C6ED"/>
</svg>
