<svg width="64" height="64" viewBox="0 0 64 64" fill="none" xmlns="http://www.w3.org/2000/svg">
<circle cx="32" cy="32" r="31.75" transform="rotate(-90 32 32)" fill="#0E172E" stroke="#0E172E" stroke-width="0.5"/>
<g clip-path="url(#clip0_6946_7225)">
<path d="M40.5977 37.6875C39.0468 37.6875 37.7852 38.9492 37.7852 40.5C37.7852 42.0508 39.0468 43.3125 40.5977 43.3125C42.1485 43.3125 43.4102 42.0508 43.4102 40.5C43.4102 38.9492 42.1485 37.6875 40.5977 37.6875ZM40.5977 41.4375C40.0807 41.4375 39.6602 41.0169 39.6602 40.5C39.6602 39.9831 40.0807 39.5625 40.5977 39.5625C41.1146 39.5625 41.5352 39.9831 41.5352 40.5C41.5352 41.0169 41.1146 41.4375 40.5977 41.4375Z" fill="#46C6ED"/>
<path d="M25.375 23.6774V20.6875C25.375 19.1367 26.6367 17.875 28.1875 17.875H36.8479C38.3987 17.875 39.6604 19.1367 39.6604 20.6875V27.7992L38.7608 26.8996C38.3947 26.5334 37.8011 26.5334 37.435 26.8996C37.0689 27.2657 37.0689 27.8593 37.435 28.2254L39.935 30.7254C40.3011 31.0915 40.8947 31.0915 41.2608 30.7254L43.7608 28.2254C44.1269 27.8593 44.1269 27.2657 43.7608 26.8996C43.3947 26.5334 42.8011 26.5334 42.435 26.8996L41.5354 27.7992V20.6875C41.5354 18.1028 39.4326 16 36.8479 16H28.1875C25.6028 16 23.5 18.1028 23.5 20.6875V23.6774C19.2871 24.1452 16 27.7269 16 32.0625C16 34.2253 16.8201 36.2815 18.3092 37.8524C19.4398 39.0451 20.0625 40.5237 20.0625 42.0159V45.1875C20.0625 46.7383 21.3242 48 22.875 48H26C27.5508 48 28.8125 46.7383 28.8125 45.1875V42.0159C28.8125 40.5237 29.4352 39.0451 30.5658 37.8524C32.0549 36.2815 32.875 34.2253 32.875 32.0625C32.875 27.7269 29.5879 24.1452 25.375 23.6774ZM26.9375 45.1875C26.9375 45.7044 26.5169 46.125 26 46.125H22.875C22.3581 46.125 21.9375 45.7044 21.9375 45.1875V43H26.9375V45.1875ZM29.2051 36.5624C27.9637 37.8719 27.1961 39.4655 26.9924 41.125H25.375V34.9508L27.2879 33.0379C27.654 32.6719 27.654 32.0782 27.2879 31.7121C26.9218 31.3461 26.3282 31.3461 25.9621 31.7121L24.4375 33.2367L22.9129 31.7121C22.5468 31.346 21.9532 31.346 21.5871 31.7121C21.2209 32.0781 21.2209 32.6717 21.5871 33.0379L23.5 34.9508V41.125H21.8826C21.6789 39.4655 20.9113 37.8719 19.6699 36.5624C18.5124 35.3414 17.875 33.7433 17.875 32.0625C17.875 28.4439 20.8189 25.5 24.4375 25.5C28.0561 25.5 31 28.4439 31 32.0625C31 33.7433 30.3626 35.3414 29.2051 36.5624Z" fill="#46C6ED"/>
<path d="M46.8322 40.9018C46.8425 40.7633 46.8475 40.6309 46.8475 40.5C46.8475 40.3691 46.8425 40.2367 46.8322 40.0982L47.7137 39.2458C48.0229 38.9468 48.089 38.4757 47.8738 38.1031L46.3113 35.3967C46.0963 35.0242 45.6551 34.8461 45.2416 34.9641L44.0609 35.3019C43.8382 35.1531 43.6063 35.0191 43.367 34.9004L43.0694 33.7101C42.9651 33.2928 42.5901 33 42.1599 33H39.0349C38.6047 33 38.2297 33.2928 38.1254 33.7101L37.8278 34.9004C37.5885 35.0191 37.3567 35.1532 37.1339 35.3019L35.9532 34.9642C35.5396 34.8459 35.0985 35.0242 34.8835 35.3968L33.321 38.1032C33.1059 38.4758 33.1719 38.9469 33.4812 39.2459L34.3627 40.0982C34.3523 40.2367 34.3473 40.3692 34.3473 40.5001C34.3473 40.6309 34.3523 40.7633 34.3627 40.9018L33.4812 41.7542C33.1719 42.0532 33.1058 42.5243 33.321 42.8969L34.8835 45.6033C35.0985 45.9758 35.5397 46.1539 35.9532 46.0359L37.1338 45.6981C37.3566 45.8469 37.5883 45.9809 37.8278 46.0997L38.1254 47.29C38.2297 47.7074 38.6047 48.0001 39.0349 48.0001H42.1599C42.5901 48.0001 42.9651 47.7073 43.0694 47.29L43.367 46.0997C43.6065 45.981 43.8382 45.8469 44.061 45.6981L45.2416 46.0359C45.6552 46.1543 46.0963 45.9758 46.3113 45.6033L47.8738 42.8969C48.0889 42.5243 48.0229 42.0532 47.7137 41.7542L46.8322 40.9018ZM44.9219 39.8764C44.9563 40.1175 44.9724 40.3157 44.9724 40.5001C44.9724 40.6844 44.9563 40.8826 44.9219 41.1236C44.8793 41.4212 44.9822 41.7212 45.1983 41.9302L45.884 42.5933L45.0535 44.0318L44.1383 43.77C43.8487 43.6873 43.5367 43.7486 43.3 43.9351C42.9703 44.1951 42.6068 44.4054 42.2195 44.5604C41.94 44.6722 41.7312 44.9114 41.6582 45.2034L41.428 46.125H39.7669L39.5365 45.2033C39.4635 44.9112 39.2547 44.6721 38.9752 44.5602C38.588 44.4053 38.2244 44.1949 37.8947 43.935C37.6581 43.7486 37.3462 43.6872 37.0564 43.7699L36.1412 44.0317L35.3107 42.5931L35.9964 41.9301C36.2125 41.7211 36.3153 41.4211 36.2728 41.1234C36.2383 40.8825 36.2223 40.6844 36.2223 40.4999C36.2223 40.3156 36.2383 40.1174 36.2728 39.8763C36.3153 39.5787 36.2125 39.2787 35.9964 39.0697L35.3107 38.4067L36.1412 36.9681L37.0564 37.2299C37.346 37.3126 37.6579 37.2514 37.8946 37.0648C38.2245 36.8048 38.588 36.5945 38.975 36.4397C39.2546 36.3279 39.4633 36.0886 39.5364 35.7966L39.7669 34.875H41.428L41.6584 35.7967C41.7314 36.0888 41.9402 36.328 42.2198 36.4398C42.6068 36.5946 42.9703 36.8049 43.3002 37.0649C43.5368 37.2514 43.8486 37.3127 44.1384 37.2301L45.0536 36.9683L45.8842 38.4068L45.1984 39.0699C44.9822 39.2788 44.8794 39.5788 44.9219 39.8764Z" fill="#46C6ED"/>
</g>
<defs>
<clipPath id="clip0_6946_7225">
<rect width="32" height="32" fill="white" transform="translate(16 16)"/>
</clipPath>
</defs>
</svg>
