<svg width="64" height="64" viewBox="0 0 64 64" fill="none" xmlns="http://www.w3.org/2000/svg">
<circle cx="32" cy="32" r="31.625" transform="rotate(-90 32 32)" fill="#0E172E" stroke="#0E172E" stroke-width="0.75"/>
<g clip-path="url(#clip0_6945_7141)">
<path d="M25.7012 37.0184C26.1468 36.4003 26.4103 35.6427 26.4103 34.8243C26.4103 32.75 24.7227 31.0625 22.6485 31.0625C20.5742 31.0625 18.8867 32.75 18.8867 34.8243C18.8867 35.6427 19.1503 36.4003 19.5958 37.0184C17.5391 37.7518 16.0625 39.7181 16.0625 42.0235V43.2969C16.0625 43.8147 16.4822 44.2344 17 44.2344H28.2969C28.8146 44.2344 29.2344 43.8147 29.2344 43.2969V42.0235C29.2345 39.7181 27.7579 37.7518 25.7012 37.0184ZM22.6486 32.9376C23.6889 32.9376 24.5353 33.7839 24.5353 34.8243C24.5353 35.8647 23.6889 36.7111 22.6486 36.7111C21.6082 36.7111 20.7618 35.8647 20.7618 34.8243C20.7618 33.7839 21.6082 32.9376 22.6486 32.9376ZM27.3595 42.3594H17.9376V42.0235C17.9376 40.1281 19.4797 38.586 21.3751 38.586H23.922C25.8174 38.586 27.3595 40.1281 27.3595 42.0235V42.3594Z" fill="#46C6ED"/>
<path d="M44.4043 40.7841C44.8499 40.1659 45.1134 39.4083 45.1134 38.5899C45.1134 36.5156 43.4259 34.8281 41.3516 34.8281C39.2774 34.8281 37.5899 36.5156 37.5899 38.5899C37.5899 39.4083 37.8534 40.1659 38.2989 40.7841C36.2422 41.5174 34.7656 43.4837 34.7656 45.7891V47.0626C34.7656 47.5803 35.1854 48.0001 35.7031 48.0001H47C47.5178 48.0001 47.9375 47.5803 47.9375 47.0626V45.7891C47.9376 43.4837 46.4611 41.5174 44.4043 40.7841ZM41.3516 36.7032C42.392 36.7032 43.2384 37.5496 43.2384 38.5899C43.2384 39.6303 42.392 40.4767 41.3516 40.4767C40.3113 40.4767 39.4649 39.6303 39.4649 38.5899C39.4649 37.5496 40.3113 36.7032 41.3516 36.7032ZM46.0626 46.1251H36.6407V45.7891C36.6407 43.8937 38.1828 42.3516 40.0782 42.3516H42.6251C44.5205 42.3516 46.0626 43.8937 46.0626 45.7891V46.1251Z" fill="#46C6ED"/>
<path d="M42.634 32.6629C42.9029 32.9324 43.3088 33.0104 43.6557 32.8661C44.006 32.721 44.2344 32.3792 44.2344 32V24.4688C44.2344 21.8754 42.1246 19.7656 39.5313 19.7656H36.6091C36.1733 17.6199 34.2724 16 32 16H24.4688C21.8754 16 19.7656 18.1098 19.7656 20.7031V28.2344C19.7656 28.6136 19.9941 28.9554 20.3444 29.1005C20.6912 29.2448 21.0971 29.1668 21.3661 28.8973L24.8571 25.4062H27.391C27.8267 27.5519 29.7277 29.1719 32.0001 29.1719H39.143L42.634 32.6629ZM27.3909 23.5312H24.4688C24.2201 23.5312 23.9817 23.63 23.8059 23.8059L21.6406 25.9711V20.7031C21.6406 19.1437 22.9093 17.875 24.4688 17.875H32C33.2309 17.875 34.2801 18.6657 34.6677 19.7656H32C29.7276 19.7656 27.8268 21.3856 27.3909 23.5312ZM29.1719 24.4688C29.1719 22.9093 30.4406 21.6406 32 21.6406H39.5312C41.0907 21.6406 42.3594 22.9093 42.3594 24.4688V29.7367L40.1941 27.5714C40.0183 27.3956 39.7799 27.2968 39.5312 27.2968H32C30.4406 27.2969 29.1719 26.0282 29.1719 24.4688Z" fill="#46C6ED"/>
</g>
<defs>
<clipPath id="clip0_6945_7141">
<rect width="32" height="32" fill="white" transform="translate(16 16)"/>
</clipPath>
</defs>
</svg>
