<svg width="64" height="64" viewBox="0 0 64 64" fill="none" xmlns="http://www.w3.org/2000/svg">
<circle cx="32" cy="32" r="31.75" transform="rotate(-90 32 32)" fill="#0E172E" stroke="#0E172E" stroke-width="0.5"/>
<path d="M25.4117 44.7059H16V36.2354H25.4117V44.7059ZM17.8823 42.8236H23.5294V38.1177H17.8823V42.8236Z" fill="#46C6ED"/>
<path d="M36.7086 44.7059H27.2969V36.2354H36.7086V44.7059ZM29.1792 42.8236H34.8263V38.1177H29.1792V42.8236Z" fill="#46C6ED"/>
<path d="M38.5905 28.7059H25.4141V19.2942H38.5905V28.7059ZM27.2964 26.8236H36.7082V21.1765H27.2964V26.8236Z" fill="#46C6ED"/>
<path d="M47.9977 44.7059H38.5859V36.2354H47.9977V44.7059ZM40.4683 42.8236H46.1154V38.1177H40.4683V42.8236Z" fill="#46C6ED"/>
<path d="M44.2363 37.1765H42.3539V33.4119H21.648V37.1765H19.7656V31.5295H44.2363V37.1765Z" fill="#46C6ED"/>
<path d="M31.0625 27.7646H32.9448V37.1764H31.0625V27.7646Z" fill="#46C6ED"/>
</svg>
