<svg width="64" height="64" viewBox="0 0 64 64" fill="none" xmlns="http://www.w3.org/2000/svg">
<circle cx="32" cy="32" r="31.75" transform="rotate(-90 32 32)" fill="#0E172E" stroke="#0E172E" stroke-width="0.5"/>
<g clip-path="url(#clip0_6946_7244)">
<path d="M47.0625 16H16.9377H16.9375C16.4197 16 16 16.4197 16 16.9375V41.4375C16 41.9553 16.4197 42.375 16.9375 42.375H28.3756V47.0625C28.3756 47.5803 28.7954 48 29.3131 48H34.6869C35.2046 48 35.6244 47.5803 35.6244 47.0625V42.375H47.0625C47.5803 42.375 48 41.9553 48 41.4375V16.9375C48 16.4197 47.5803 16 47.0625 16ZM34.8752 17.875V19.75H17.8752V17.875H34.8752ZM33.7494 35.9988V46.125H30.2506V35.9988C30.2506 35.6555 30.0631 35.3397 29.7616 35.1755C28.1948 34.325 27.2401 32.6424 27.3167 30.8658C27.3794 29.4297 28.0797 28.1432 29.1875 27.3182V31.2612C29.1875 31.7789 29.6072 32.1987 30.125 32.1987H33.875C34.3928 32.1987 34.8125 31.7789 34.8125 31.2612V27.3182C35.9203 28.1432 36.6206 29.4297 36.6833 30.8658C36.759 32.6441 35.8041 34.3257 34.2383 35.1755C33.9369 35.3398 33.7494 35.6555 33.7494 35.9988ZM46.125 40.5H35.6244V36.5275C37.5175 35.2769 38.6492 33.0964 38.5573 30.8037H38.5574C38.5032 29.4736 38.0531 28.2079 37.2557 27.1432C36.4734 26.0986 35.4123 25.3179 34.1871 24.8854C33.6014 24.6601 32.9202 25.1424 32.9375 25.7694V30.3237H31.0625V25.7694C31.0799 25.1424 30.3984 24.6602 29.8129 24.8854C28.5878 25.3179 27.5266 26.0986 26.7443 27.1432C25.9536 28.1991 25.5043 29.4526 25.4441 30.7706C25.3388 33.072 26.4721 35.2706 28.3756 36.5275V40.5H17.875V21.625H35.8127C36.3305 21.625 36.7502 21.2053 36.7502 20.6875V17.875H46.125V40.5Z" fill="#46C6ED"/>
<path d="M39.5625 21.625C40.0803 21.625 40.5 21.2053 40.5 20.6875C40.5 20.1697 40.0803 19.75 39.5625 19.75C39.0447 19.75 38.625 20.1697 38.625 20.6875C38.625 21.2053 39.0447 21.625 39.5625 21.625Z" fill="#46C6ED"/>
<path d="M43.3125 21.625C43.8303 21.625 44.25 21.2053 44.25 20.6875C44.25 20.1697 43.8303 19.75 43.3125 19.75C42.7947 19.75 42.375 20.1697 42.375 20.6875C42.375 21.2053 42.7947 21.625 43.3125 21.625Z" fill="#46C6ED"/>
</g>
<defs>
<clipPath id="clip0_6946_7244">
<rect width="32" height="32" fill="white" transform="translate(16 16)"/>
</clipPath>
</defs>
</svg>
