<svg width="64" height="64" viewBox="0 0 64 64" fill="none" xmlns="http://www.w3.org/2000/svg">
<circle cx="32" cy="32" r="31.75" transform="rotate(-90 32 32)" fill="#0E172E" stroke="#0E172E" stroke-width="0.5"/>
<g clip-path="url(#clip0_6946_7233)">
<path d="M35.75 36.625C35.75 34.5573 34.0677 32.875 32 32.875C29.9323 32.875 28.25 34.5573 28.25 36.625C28.25 38.6927 29.9323 40.375 32 40.375C34.0677 40.375 35.75 38.6927 35.75 36.625ZM32 38.5C30.9661 38.5 30.125 37.6589 30.125 36.625C30.125 35.5911 30.9661 34.75 32 34.75C33.0339 34.75 33.875 35.5911 33.875 36.625C33.875 37.6589 33.0339 38.5 32 38.5Z" fill="#46C6ED"/>
<path d="M45.125 36.625C45.125 34.5573 43.4427 32.875 41.375 32.875C39.3073 32.875 37.625 34.5573 37.625 36.625C37.625 38.6927 39.3073 40.375 41.375 40.375C43.4427 40.375 45.125 38.6927 45.125 36.625ZM41.375 38.5C40.3411 38.5 39.5 37.6589 39.5 36.625C39.5 35.5911 40.3411 34.75 41.375 34.75C42.4089 34.75 43.25 35.5911 43.25 36.625C43.25 37.6589 42.4089 38.5 41.375 38.5Z" fill="#46C6ED"/>
<path d="M45.1875 40.375H18.8125C17.2617 40.375 16 41.6367 16 43.1875V48H48V43.1875C48 41.6367 46.7383 40.375 45.1875 40.375ZM17.875 46.125V43.1875C17.875 42.6706 18.2956 42.25 18.8125 42.25H25.5988C25.4947 42.5434 25.4375 42.8589 25.4375 43.1875V46.125H17.875ZM36.6875 46.125H27.3125V43.1875C27.3125 42.6706 27.7331 42.25 28.25 42.25H31.0625V44.125H32.9375V42.25H35.75C36.2669 42.25 36.6875 42.6706 36.6875 43.1875V46.125ZM46.125 46.125H38.5625V43.1875C38.5625 42.8589 38.5053 42.5434 38.4013 42.25H45.1875C45.7044 42.25 46.125 42.6706 46.125 43.1875V46.125Z" fill="#46C6ED"/>
<path d="M26.375 36.625C26.375 34.5573 24.6927 32.875 22.625 32.875C20.5573 32.875 18.875 34.5573 18.875 36.625C18.875 38.6927 20.5573 40.375 22.625 40.375C24.6927 40.375 26.375 38.6927 26.375 36.625ZM22.625 38.5C21.5911 38.5 20.75 37.6589 20.75 36.625C20.75 35.5911 21.5911 34.75 22.625 34.75C23.6589 34.75 24.5 35.5911 24.5 36.625C24.5 37.6589 23.6589 38.5 22.625 38.5Z" fill="#46C6ED"/>
<path d="M40.4375 24.4375C40.4375 19.7851 36.6524 16 32 16C27.3476 16 23.5625 19.7851 23.5625 24.4375C23.5625 29.0899 27.3476 32.875 32 32.875C36.6524 32.875 40.4375 29.0899 40.4375 24.4375ZM32 31C28.3814 31 25.4375 28.0561 25.4375 24.4375C25.4375 20.8189 28.3814 17.875 32 17.875C35.6186 17.875 38.5625 20.8189 38.5625 24.4375C38.5625 28.0561 35.6186 31 32 31Z" fill="#46C6ED"/>
<path d="M31.0621 24.9866L29.1871 23.1116L27.8613 24.4374L31.0621 27.6382L36.138 22.5624L34.8121 21.2366L31.0621 24.9866Z" fill="#46C6ED"/>
</g>
<defs>
<clipPath id="clip0_6946_7233">
<rect width="32" height="32" fill="white" transform="translate(16 16)"/>
</clipPath>
</defs>
</svg>
