<svg width="64" height="64" viewBox="0 0 64 64" fill="none" xmlns="http://www.w3.org/2000/svg">
<circle cx="32" cy="32" r="31.75" transform="rotate(-90 32 32)" fill="#0E172E" stroke="#0E172E" stroke-width="0.5"/>
<path d="M16 17V47H48V17H16ZM46.125 22.625H29.1875V18.875H34.8125V20.75H36.6875V18.875H38.5625V20.75H40.4375V18.875H42.3125V20.75H44.1875V18.875H46.125V22.625ZM17.875 45.125V18.875H27.3125V24.5H46.125V45.125H17.875Z" fill="#46C6ED"/>
<path d="M19.8125 20.75H25.4375V22.625H19.8125V20.75Z" fill="#46C6ED"/>
<path d="M19.8125 33.875H44.1875V26.375H19.8125V33.875ZM28.3654 32L42.3125 28.5133V32H28.3654ZM35.6346 28.25L21.6875 31.7367V28.25H35.6346Z" fill="#46C6ED"/>
<path d="M32.9375 43.25H44.1875V35.75H32.9375V43.25ZM37.2596 41.375L42.3125 38.3433V41.375H37.2596ZM39.8653 37.625L34.8125 40.6567V37.625H39.8653Z" fill="#46C6ED"/>
<path d="M19.8125 43.25H31.0625V35.75H19.8125V43.25ZM24.1346 41.375L29.1875 38.3433V41.375H24.1346ZM26.7404 37.625L21.6875 40.6567V37.625H26.7404Z" fill="#46C6ED"/>
</svg>
